<?xml version="1.0" standalone="no"?><!DOCTYPE svg PUBLIC "-//W3C//DTD SVG 1.1//EN" "http://www.w3.org/Graphics/SVG/1.1/DTD/svg11.dtd"><svg t="1566370706528" class="icon" viewBox="0 0 1024 1024" version="1.1" xmlns="http://www.w3.org/2000/svg" p-id="5619" xmlns:xlink="http://www.w3.org/1999/xlink" width="32" height="32"><defs><style type="text/css"></style></defs><path d="M990.840128 620.461344c-88.817121-117.779225-223.973608-239.420064-260.658941-270.312976-25.100491-21.238877-52.131788-30.892911-77.232278-30.892911-25.100491 0-50.200981 11.584842-71.439858 28.962104-3.861614 3.861614-9.654035 9.654035-17.377263 15.446456-54.062595 44.40856-218.181187 196.942311-222.042801 198.873118-11.584842 11.584842-28.962105 19.30807-46.339367 19.308069-15.446456 0-32.823718-7.723228-50.200982-25.10049-11.584842-11.584842-67.578244-55.993402-133.22568-129.364067-40.546946-44.40856-73.370665-84.955507-73.370665-84.955507s-7.723228 15.446456-11.584842 25.100491c-3.861614 9.654035 0 13.515649 1.930807 17.377263 21.238877 30.892911 121.640839 150.602944 260.658941 270.312975 25.100491 21.238877 52.131788 30.892911 77.232278 30.892912 25.100491 0 50.200981-11.584842 71.439858-28.962105 3.861614-3.861614 11.584842-9.654035 19.30807-15.446456 54.062595-44.40856 152.53375-137.087295 200.803925-179.565048 9.654035-9.654035 17.377263-15.446456 21.238876-19.308069 11.584842-11.584842 28.962105-19.30807 46.339367-19.30807 15.446456 0 32.823718 7.723228 50.200982 25.100491 28.962105 25.100491 77.232279 69.509051 133.22568 129.364066 42.477753 44.40856 73.370665 84.955507 73.370665 84.955507s7.723228-15.446456 11.584842-27.031298c0-9.654035-1.930807-13.515649-3.861614-15.446455z" fill="#7fe036" p-id="5620"></path><path d="M670.326171 176.375741c-63.71663-34.754525-139.018102-46.339367-212.388766 7.723228-46.339367 32.823718-237.489257 210.45796-274.17459 252.935713 0 0 27.031298 28.962105 67.578244 63.71663 9.654035 9.654035 23.169684 7.723228 34.754526-3.861614 73.370665-73.370665 222.042801-206.596346 243.281678-222.042802 55.993402-48.270174 121.640839-52.131788 181.495855-7.723227 146.74133 110.055997 276.105396 281.897817 297.344273 314.721535 0 0 3.861614-15.446456 5.792421-30.892911 0 0 1.930807-13.515649-3.861614-25.100491-139.018102-196.942311-283.828624-320.513957-339.822027-349.476061z" fill="#7fe036" p-id="5621"></path><path d="M137.423448 363.664017c92.678734-90.747927 193.080697-181.495855 252.935713-225.904415 98.471155-77.232279 214.319573-83.0247 326.306378 5.792421 42.477753 32.823718 79.163086 67.578244 133.22568 123.571646 69.509051 75.301472 115.848418 139.018102 164.118593 210.457959 0 0 0-19.30807-5.792421-44.40856-1.930807-3.861614-1.930807-11.584842-5.792421-17.377263-9.654035-19.30807-54.062595-94.609541-117.779225-169.911013-125.502453-148.672137-206.596346-193.080697-256.797327-220.111994-67.578244-36.685332-200.803925-46.339367-324.375571 54.062595-94.609541 75.301472-214.319573 187.288276-245.212484 222.042801 0 0 23.169684 28.962105 59.855016 63.71663 5.792421 5.792421 13.515649 3.861614 19.308069-1.930807zM345.950601 830.919303c63.71663 34.754525 137.087295 46.339367 212.388766-7.723228 46.339367-32.823718 237.489257-210.45796 274.17459-252.935712 0 0-27.031298-28.962105-67.578244-63.71663-9.654035-9.654035-23.169684-7.723228-34.754526 3.861614-73.370665 73.370665-222.042801 206.596346-243.281678 222.042801-55.993402 48.270174-121.640839 52.131788-181.495855 7.723228-146.74133-110.055997-276.105396-281.897817-297.344273-312.790729 0 0-3.861614 15.446456-5.792421 30.892911 0 0-1.930807 13.515649 3.861614 25.100491 137.087295 195.011504 283.828624 316.652343 339.822027 347.545254z" fill="#7fe036" p-id="5622"></path><path d="M898.161394 639.769413c-7.723228-5.792421-13.515649-3.861614-21.238877 1.930807-92.678734 90.747927-193.080697 181.495855-252.935713 225.904416-98.471155 77.232279-214.319573 83.0247-326.306377-5.792421-42.477753-32.823718-79.163086-67.578244-133.225681-123.571646-69.509051-75.301472-115.848418-139.018102-164.118593-210.45796 0 0 0 19.30807 5.792421 44.40856 1.930807 3.861614 1.930807 11.584842 5.792421 17.377263 9.654035 19.30807 54.062595 94.609541 117.779225 169.911013 125.502453 146.74133 206.596346 193.080697 256.797327 220.111995 67.578244 34.754525 200.803925 46.339367 324.375571-54.062595 94.609541-75.301472 214.319573-187.288276 245.212485-222.042802 1.930807 0-21.238877-27.031298-57.924209-63.71663z" fill="#7fe036" p-id="5623"></path></svg>
