<?xml version="1.0" standalone="no"?><!DOCTYPE svg PUBLIC "-//W3C//DTD SVG 1.1//EN" "http://www.w3.org/Graphics/SVG/1.1/DTD/svg11.dtd"><svg t="1566368243984" class="icon" viewBox="0 0 1054 1024" version="1.1" xmlns="http://www.w3.org/2000/svg" p-id="4273" xmlns:xlink="http://www.w3.org/1999/xlink" width="32.9375" height="32"><defs><style type="text/css"></style></defs><path d="M1047.369 154.056C1024.542 62.672 905.114 8.8 745.867 1.71l14.756 56.695c56.722 13.057 95.251 38.625 104.444 75.414 21.033 84.21-120.78 190.438-315.866 239.296a873.715 873.715 0 0 1-37.595 8.52c15.822-136.34 54.398-229.908 111.597-229.908 16.898 0 30.568 7.6 41.59 21.489l45.373-12.38C666.956 67.13 606.308 9.35 539.04 9.35c-107.343 0-202.438 164.763-228.372 385.79-83.501-8.18-142.685-36.89-154.317-83.409-16.312-65.305 66.585-143.478 195.575-198.079-3.418-13.008-8.169-31.062-11.427-43.274C119.964 153.541-21.508 293.793 8.574 414.186c22.737 91 139.494 146.268 296.53 154.753 12.802 245.166 112.458 448.135 235.085 448.135 105.878 0 203.01-152.867 229.49-382.35l-77.015 18.818c-17.334 118.162-50.345 200.402-90.177 199.319-48.975-1.328-92.351-132.187-98.13-296.088 28.617-4.733 57.696-10.674 87.073-18.04 286.86-71.824 491.173-243.67 455.939-384.677z" p-id="4274" fill="#1296db"></path></svg>