<?xml version="1.0" standalone="no"?><!DOCTYPE svg PUBLIC "-//W3C//DTD SVG 1.1//EN" "http://www.w3.org/Graphics/SVG/1.1/DTD/svg11.dtd"><svg t="1566370873507" class="icon" viewBox="0 0 1024 1024" version="1.1" xmlns="http://www.w3.org/2000/svg" p-id="6615" xmlns:xlink="http://www.w3.org/1999/xlink" width="32" height="32"><defs><style type="text/css"></style></defs><path d="M700.674181 646.7584c-43.4176-43.6224-86.9376-87.1424-130.3552-130.7648-1.024-1.024-1.9456-2.2528-3.3792-3.8912 3.4816-3.6864 6.8608-7.2704 10.3424-10.8544 49.4592-49.8688 99.1232-99.6352 148.3776-149.7088 13.0048-13.2096 26.9312-26.2144 37.376-41.2672 20.7872-30.3104 23.552-63.6928 8.192-97.0752-7.68-16.7936-17.6128-32.5632-31.5392-45.6704-28.2624-26.624-59.392-46.3872-100.864-43.6224-25.2928 1.6384-47.4112 10.6496-65.8432 27.2384-14.0288 12.6976-26.8288 26.7264-40.1408 40.1408-6.7584 6.7584-13.6192 13.5168-20.992 20.8896-1.1264-1.6384-1.4336-2.3552-1.9456-2.8672C487.989381 188.1088 467.509381 164.864 443.547781 146.0224c-34.816-27.3408-74.3424-29.9008-114.5856-10.5472-29.5936 14.1312-52.1216 36.1472-68.8128 63.488-20.7872 33.9968-22.9376 69.0176-3.6864 104.7552 7.2704 13.5168 18.1248 23.9616 28.9792 34.7136 54.1696 53.9648 108.032 108.3392 161.8944 162.6112 3.4816 3.4816 6.4512 7.3728 10.0352 11.5712-4.4032 4.608-8.2944 8.8064-12.288 12.8-50.2784 50.4832-100.7616 100.864-150.9376 151.4496-15.6672 15.7696-32.5632 30.5152-41.6768 51.8144-12.5952 29.184-12.288 57.856 1.8432 85.7088 18.8416 36.9664 47.5136 64.512 87.3472 79.872 32.3584 12.4928 63.1808 7.2704 92.5696-8.8064 16.4864-9.0112 28.2624-23.4496 41.2672-36.5568 12.0832-12.0832 24.6784-23.6544 35.2256-33.792 16.4864 15.0528 33.792 29.184 49.0496 45.1584 19.3536 20.2752 41.5744 34.5088 69.632 39.424 28.5696 5.0176 54.3744-2.7648 78.2336-17.5104 26.0096-16.0768 46.08-37.5808 60.6208-64.512 21.8112-40.2432 13.5168-85.4016-15.4624-118.272-16.2816-18.6368-34.7136-35.2256-52.1216-52.6336zM363.880581 291.9424c-7.68-7.7824-15.5648-15.4624-23.1424-23.3472-14.6432-15.1552-11.1616-42.0864 5.9392-54.784 20.992-15.5648 40.448-11.3664 56.32 6.3488 13.9264 15.5648 29.184 29.9008 43.8272 44.7488 1.8432 1.9456 3.6864 3.8912 7.0656 7.2704-15.0528 13.5168-29.696 26.624-44.8512 40.2432 21.7088 20.1728 41.984 38.912 61.3376 56.9344 12.6976-11.4688 27.648-24.9856 43.2128-39.0144 13.1072 13.6192 27.0336 27.9552 39.8336 41.2672 20.2752-19.2512 40.1408-38.0928 60.6208-57.4464-14.1312-14.5408-27.9552-28.7744-42.3936-43.52 5.9392-6.0416 11.776-11.776 17.5104-17.6128 12.5952-12.6976 24.9856-25.7024 37.888-38.0928 13.9264-13.312 28.5696-14.5408 44.9536-4.3008 17.6128 10.9568 23.7568 25.1904 18.6368 45.1584-1.1264 4.3008-3.3792 9.0112-6.4512 12.1856-55.1936 55.808-110.4896 111.3088-165.888 166.912-1.7408 1.7408-3.584 3.3792-6.656 6.2464-9.5232-9.728-18.8416-19.2512-28.2624-28.7744-39.8336-40.2432-79.6672-80.2816-119.5008-120.4224z m308.9408 522.0352c-15.872 9.3184-33.0752 8.0896-47.2064-5.7344-17.92-17.5104-36.5568-34.4064-55.5008-52.224 9.0112-9.4208 15.872-16.5888 22.8352-23.8592 6.8608-7.168 13.7216-14.336 21.0944-22.016-20.5824-19.1488-40.7552-37.888-61.3376-56.9344-11.9808 12.3904-25.8048 26.7264-39.1168 40.448-15.1552-13.7216-30.1056-27.2384-44.032-40.0384-19.0464 17.8176-39.1168 36.6592-59.6992 56.1152 14.6432 14.9504 28.672 29.3888 42.8032 43.8272-9.0112 9.3184-17.7152 18.432-26.5216 27.4432-8.704 8.8064-18.0224 17.2032-26.4192 26.3168-17.3056 18.7392-42.8032 15.2576-58.4704-2.3552-12.288-13.7216-13.7216-36.5568 1.8432-51.9168 42.2912-41.5744 83.7632-83.968 125.5424-125.952 11.0592-11.1616 22.1184-22.3232 32.8704-33.6896 3.2768-3.3792 5.7344-7.4752 8.4992-11.264 12.9024 12.3904 23.8592 22.528 34.4064 33.0752 40.7552 40.96 81.408 82.0224 122.1632 122.9824 5.9392 6.0416 11.9808 11.8784 17.8176 18.0224 14.9504 16.2816 9.0112 45.7728-11.5712 57.7536zM1015.451781 462.848c-17.8176-55.808-59.904-87.04-117.8624-88.576-37.376-1.024-70.4512 10.6496-98.0992 35.2256-15.6672 13.9264-30.1056 29.3888-44.3392 43.4176-17.408-15.872-36.0448-32.9728-53.5552-49.0496-19.1488 18.0224-39.3216 36.9664-59.6992 56.1152 17.408 17.7152 34.4064 35.0208 52.9408 53.8624-18.3296 16.7936-35.9424 32.9728-54.1696 49.664 21.4016 20.0704 41.472 39.0144 60.6208 56.9344 17.7152-16.384 36.352-33.5872 55.0912-50.8928 0.3072 0.3072 1.024 0.9216 1.536 1.7408 14.6432 20.5824 32.768 37.6832 53.4528 52.5312 26.0096 18.7392 54.8864 26.8288 86.8352 26.0096 29.5936-0.8192 56.5248-9.1136 78.848-28.5696 27.4432-23.9616 40.1408-55.3984 45.568-90.112 3.7888-23.2448 0-45.7728-7.168-68.3008z m-80.7936 81.6128c-13.2096 21.9136-38.0928 24.576-57.4464 18.7392-23.1424-6.8608-40.1408-22.6304-56.32-39.424-12.8-13.2096-12.4928-11.264 0.1024-23.3472 11.0592-10.6496 22.6304-21.0944 35.2256-29.7984 16.1792-11.0592 34.5088-16.0768 54.272-10.0352 17.7152 5.4272 33.5872 24.2688 32.256 51.9168 0.8192 11.1616-1.9456 21.9136-8.0896 31.9488z m-669.4912 28.0576c1.1264-1.6384 1.7408-3.4816 2.7648-5.5296 19.456 19.968 36.864 37.888 52.736 54.0672 20.6848-19.1488 40.8576-37.888 62.8736-58.4704-18.2272-16.5888-35.84-32.6656-53.9648-49.152 18.2272-18.6368 35.2256-35.9424 52.736-53.76-20.5824-19.5584-40.448-38.4-60.7232-57.5488-17.1008 17.5104-34.6112 35.4304-52.4288 53.8624-1.536-1.4336-2.56-2.2528-3.3792-3.1744-11.6736-12.8-22.3232-26.7264-35.1232-38.2976-33.8944-30.5152-73.5232-44.7488-120.32-38.6048-37.4784 4.9152-66.9696 22.016-86.016 53.4528C-1.892219 472.6784-7.524219 518.5536 10.395781 567.0912c24.6784 67.072 83.1488 91.3408 148.48 80.7936 23.1424-3.6864 43.52-14.9504 61.8496-29.2864 16.9984-13.4144 32.4608-28.16 44.4416-46.08z m-54.3744-57.1392c-17.7152 19.1488-35.5328 38.5024-61.6448 47.0016-6.144 2.048-12.6976 2.7648-19.0464 4.096-25.8048-0.512-45.1584-17.8176-47.8208-42.8032-1.8432-17.3056-1.024-33.8944 10.24-48.4352 12.4928-16.1792 39.8336-21.4016 60.5184-12.4928 23.2448 9.9328 40.2432 27.2384 56.9344 44.9536 1.4336 1.6384 2.048 6.3488 0.8192 7.68z" fill="#d81e06" p-id="6616"></path></svg>